<svg width="48" height="48" viewBox="0 0 48 48" fill="none" xmlns="http://www.w3.org/2000/svg">
<g id="Layer_1" clip-path="url(#clip0_2943_670)">
<path id="Vector" d="M24.0008 42.025C20.0656 42.025 16.4899 40.0331 14.4251 36.6955C12.3603 33.353 12.1805 29.2526 13.9441 25.7254L24.0008 5.56836L34.0526 25.7254C35.8113 29.2186 35.6316 33.3092 33.5668 36.6566C31.4971 40.0137 27.9214 42.0202 24.0008 42.0202V42.025ZM24.0008 7.74488L14.8186 26.1627C13.2056 29.3886 13.3708 33.1343 15.2558 36.1902C17.1409 39.2364 20.4105 41.0582 24.0056 41.0582C27.6008 41.0582 30.8559 39.2267 32.7457 36.1562C34.6307 33.0955 34.7959 29.3594 33.1927 26.1675L24.0008 7.74488Z" fill="#544E4E"/>
<path id="Vector_2" d="M24 48C10.766 48 0 37.234 0 24C0 10.766 10.766 0 24 0C37.234 0 48 10.766 48 24C48 37.234 37.234 48 24 48ZM24 0.97166C11.3004 0.97166 0.97166 11.3004 0.97166 24C0.97166 36.6996 11.3004 47.0283 24 47.0283C36.6996 47.0283 47.0283 36.6996 47.0283 24C47.0283 11.3004 36.6996 0.97166 24 0.97166Z" fill="#544E4E"/>
<path id="Vector_3" d="M25.6026 35.6121H22.3962V31.2882H18.0723V28.0817H22.3962V23.7578H25.6026V28.0817H29.9265V31.2882H25.6026V35.6121ZM23.3678 34.6404H24.631V30.3165H28.9549V29.0534H24.631V24.7295H23.3678V29.0534H19.0439V30.3165H23.3678V34.6404Z" fill="#544E4E"/>
</g>
<defs>
<clipPath id="clip0_2943_670">
<rect width="48" height="48" fill="white"/>
</clipPath>
</defs>
</svg>
