<svg width="48" height="48" viewBox="0 0 48 48" fill="none" xmlns="http://www.w3.org/2000/svg">
<g id="Layer_1" clip-path="url(#clip0_2943_684)">
<path id="Vector" d="M24.3857 13.4453H23.4219V35.7104H24.3857V13.4453Z" fill="#544E4E"/>
<path id="Vector_2" d="M23.9517 20.9645C22.265 20.9645 20.7276 20.1018 19.8361 18.6609C18.9445 17.2199 18.8626 15.4609 19.6192 13.9524L23.9566 5.23438L28.2891 13.9524C29.0409 15.4609 28.959 17.2199 28.0722 18.6609C27.1807 20.1018 25.6433 20.9645 23.9566 20.9645H23.9517ZM23.9614 7.41751L20.477 14.3862C19.8746 15.591 19.9421 17.003 20.6554 18.1549C21.3686 19.3115 22.6023 20.0006 23.9517 20.0006C25.3011 20.0006 26.5349 19.3115 27.2481 18.1549C27.9614 16.9982 28.0288 15.591 27.4264 14.3862L23.9614 7.41751Z" fill="#544E4E"/>
<path id="Vector_3" d="M29.9185 32.6215C28.6414 32.6215 27.4173 32.1155 26.4968 31.1805C25.292 29.9757 24.8004 28.2649 25.1956 26.6119C25.586 24.9733 26.7763 23.6817 28.3763 23.1564L29.186 22.8721L36.1305 20.5444L37.5956 20.207L34.8197 28.5396L34.5257 29.3251C34.0052 30.9155 32.6992 32.1058 31.0414 32.4914C30.6703 32.5781 30.2944 32.6215 29.9233 32.6215H29.9185ZM36.1257 21.5757L28.6944 24.0721C27.4028 24.4962 26.4534 25.5275 26.1402 26.8384C25.8221 28.1637 26.2173 29.5323 27.1908 30.5058C28.1402 31.4745 29.4992 31.8697 30.8245 31.5564C32.1546 31.248 33.2004 30.2938 33.6197 29.007L33.9137 28.2167L36.1257 21.5757Z" fill="#544E4E"/>
<path id="Vector_4" d="M18.2983 32.6704C17.9224 32.6704 17.5417 32.627 17.161 32.5354C15.5224 32.1451 14.2309 30.9547 13.7056 29.3547L13.4212 28.5451L10.6309 20.1113L19.8646 23.2053C21.4646 23.7306 22.655 25.0366 23.0405 26.6945C23.426 28.3523 22.9345 30.0487 21.7297 31.2342C20.7995 32.1643 19.5658 32.6704 18.2935 32.6704H18.2983ZM12.1345 21.6294L14.6212 29.0463C15.0453 30.3378 16.0766 31.2872 17.3875 31.6005C18.7128 31.9186 20.0863 31.5234 21.055 30.5547C22.0236 29.6053 22.4188 28.2463 22.1056 26.921C21.7971 25.5908 20.8429 24.5499 19.5562 24.1258L18.7272 23.8318L12.1297 21.6342L12.1345 21.6294Z" fill="#544E4E"/>
<path id="Vector_5" d="M23.9755 33.5128C23.0117 33.5128 22.0478 33.1368 21.296 32.385L13.9707 25.0115L14.655 24.332L21.9803 31.7055C23.0984 32.8236 24.8526 32.8236 25.9707 31.7055L33.1514 24.4766L33.8358 25.1561L26.655 32.385C25.9032 33.1368 24.9394 33.5128 23.9755 33.5128Z" fill="#544E4E"/>
<path id="Vector_6" d="M1.7253 32.4241C0.583133 29.6385 0 26.6602 0 23.5663C0 10.5735 10.5735 0 23.5663 0C30.7566 0 37.4651 3.22891 41.9663 8.85783L41.2145 9.46024C36.8964 4.05783 30.4626 0.963855 23.5663 0.963855C11.1036 0.963855 0.963855 11.1036 0.963855 23.5663C0.963855 26.5349 1.51807 29.3928 2.61205 32.0578L1.72048 32.4241H1.7253Z" fill="#544E4E"/>
<path id="Vector_7" d="M42.1687 9.6863H35.8555V8.72245H41.2049V3.37305H42.1687V9.6863Z" fill="#544E4E"/>
<path id="Vector_8" d="M24.4342 47.8078C17.2438 47.8078 10.5354 44.5789 6.03418 38.95L6.78599 38.3476C11.1041 43.7452 17.5378 46.8391 24.4342 46.8391C36.8968 46.8391 47.0366 36.6994 47.0366 24.2367C47.0366 21.2681 46.4824 18.4102 45.3884 15.7452L46.28 15.3789C47.4221 18.1644 48.0053 21.1428 48.0053 24.2367C48.0053 37.2295 37.4318 47.803 24.439 47.803L24.4342 47.8078Z" fill="#544E4E"/>
<path id="Vector_9" d="M6.79491 44.3855H5.83105V38.0723H12.1443V39.0361H6.79491V44.3855Z" fill="#544E4E"/>
<path id="Vector_10" d="M30.1203 42.025H17.6865V41.543C17.6865 38.1165 20.4769 35.3262 23.9034 35.3262C27.3299 35.3262 30.1203 38.1165 30.1203 41.543V42.025ZM18.6745 41.0611H29.1371C28.8913 38.3912 26.6407 36.29 23.9082 36.29C21.1757 36.29 18.9203 38.3912 18.6793 41.0611H18.6745Z" fill="#544E4E"/>
</g>
<defs>
<clipPath id="clip0_2943_684">
<rect width="48" height="47.8072" fill="white"/>
</clipPath>
</defs>
</svg>
