<svg width="48" height="48" viewBox="0 0 48 48" fill="none" xmlns="http://www.w3.org/2000/svg">
<g id="Layer_1" clip-path="url(#clip0_2943_659)">
<path id="Vector" d="M24 47.4769C10.7638 47.4769 0 36.8257 0 23.7385C0 10.6513 10.7638 0 24 0C37.2362 0 48 10.6465 48 23.7385C48 36.8304 37.2362 47.4769 24 47.4769ZM24 0.95527C11.2998 0.95527 0.965795 11.1767 0.965795 23.7385C0.965795 36.3003 11.2998 46.5217 24 46.5217C36.7002 46.5217 47.0342 36.3003 47.0342 23.7385C47.0342 11.1767 36.7002 0.95527 24 0.95527Z" fill="#544E4E"/>
<path id="Vector_2" d="M24.0051 33.6213L23.416 32.8618C24.1355 32.3125 24.9999 32.0069 25.8498 31.9973L25.449 31.1471C25.0627 30.2778 24.8695 29.3942 24.8695 28.5106C24.8695 25.2435 27.3806 22.5879 30.4711 22.5879H31.5818C32.7118 22.5879 33.7983 23.1658 34.4889 24.1259L33.7017 24.6752C33.1947 23.9635 32.4027 23.5384 31.5866 23.5384H30.476C27.9214 23.5384 25.8402 25.7689 25.8402 28.5058C25.8402 29.2605 26.0043 30.0151 26.3327 30.7507L27.3758 32.9478H25.8933C25.2462 32.9478 24.5798 33.1818 24.0148 33.6117L24.0051 33.6213Z" fill="#544E4E"/>
<path id="Vector_3" d="M30.2781 35.584H23.6141V34.6287H30.2781C32.2001 34.6287 34.0157 33.8358 35.3823 32.3934L36.0101 31.7247C37.3719 30.287 38.1493 28.3001 38.1493 26.2701C38.1493 22.0287 34.9236 18.5802 30.9542 18.5802H29.6504C27.429 18.5802 25.2125 19.0578 23.2375 19.9701C20.992 21.0257 18.9349 22.3631 17.124 23.9536L16.4383 24.5554L16.3224 23.6527C16.2258 22.9076 15.7912 22.7834 15.7381 22.7738L15.3662 22.6878L15.3518 22.3057V13.8994C15.3518 13.2498 14.8447 12.7053 14.2411 12.7053C13.6375 12.7053 13.1304 13.2498 13.1304 13.8994V22.8789H12.3578C10.4938 22.8789 8.97751 24.5076 8.97751 26.5089C8.97751 28.5102 10.4938 30.139 12.3578 30.139H15.1103C15.8009 30.139 16.3562 30.3491 16.7618 30.7694C17.4282 31.462 17.3848 32.4603 17.3799 32.5032L17.3558 32.957H16.897C15.7236 32.957 14.6902 33.5779 14.1107 34.581H19.553V35.5362H12.7007L12.9131 34.9058C13.4491 33.3152 14.7723 32.231 16.3658 32.0352C16.3176 31.8346 16.2306 31.6053 16.0568 31.4238C15.8395 31.2041 15.5304 31.0942 15.1103 31.0942H12.3578C9.96262 31.0942 8.01172 29.0356 8.01172 26.5089C8.01172 23.9822 9.85639 22.0335 12.1646 21.9284V13.8994C12.1646 12.7339 13.1159 11.75 14.2411 11.75C15.3662 11.75 16.3176 12.7339 16.3176 13.8994V21.9857C16.5542 22.1147 16.8439 22.3439 17.0516 22.7499C18.7852 21.3123 20.7264 20.0847 22.8222 19.1056C24.9276 18.136 27.2842 17.6249 29.6455 17.6249H30.9493C35.4499 17.6249 39.1103 21.5033 39.1103 26.2701C39.1103 28.5389 38.2363 30.7647 36.7103 32.3743L36.0825 33.043C34.5276 34.6813 32.4656 35.584 30.2733 35.584H30.2781Z" fill="#544E4E"/>
<path id="Vector_4" d="M17.2349 23.8622L16.3753 23.4228L20.4317 15.6373C20.7842 14.9017 20.4606 14.0229 19.688 13.6599C18.8429 13.3017 17.9689 13.722 17.3749 14.7967L16.129 17.309L15.2646 16.8887L16.5202 14.3572C17.3653 12.8384 18.7657 12.227 20.0888 12.7906C21.3685 13.3924 21.8948 14.8253 21.3009 16.0624L17.2349 23.8622Z" fill="#544E4E"/>
<path id="Vector_5" d="M12.5551 26.6993C12.8931 26.6993 13.1345 26.4126 13.1345 26.126C13.1345 25.7916 12.8448 25.5527 12.5551 25.5527C12.2653 25.5527 11.9756 25.8394 11.9756 26.126C11.9756 26.4126 12.217 26.6993 12.5551 26.6993Z" fill="#544E4E"/>
<path id="Vector_6" d="M21.5374 38.1196L18.9056 35.1869C18.6979 34.9194 18.5676 34.6185 18.5048 34.2937L18.4951 34.1982C18.4951 33.2668 19.1953 32.5742 20.0887 32.5742C20.5233 32.5742 20.9096 32.7796 21.1462 33.1378L21.5615 33.5725L21.914 33.1522C22.1507 32.7844 22.5418 32.5742 22.9812 32.5742C23.8746 32.5742 24.5748 33.2668 24.5748 34.1504C24.5748 34.5707 24.4203 34.929 24.145 35.206L21.5325 38.1196H21.5374ZM20.0887 33.5295C19.7265 33.5295 19.4609 33.7922 19.4609 34.1504C19.4899 34.2889 19.5623 34.4561 19.6541 34.5803L21.5374 36.6771L23.4448 34.5469C23.5607 34.4274 23.6138 34.3128 23.6138 34.1934C23.6138 33.7874 23.3482 33.5247 22.9861 33.5247C22.8702 33.5247 22.7832 33.5773 22.7253 33.6728L22.6818 33.7349L21.6098 35.0102L20.3543 33.6776C20.2963 33.5773 20.2046 33.5295 20.0935 33.5295H20.0887Z" fill="#544E4E"/>
</g>
<defs>
<clipPath id="clip0_2943_659">
<rect width="48" height="47.4769" fill="white"/>
</clipPath>
</defs>
</svg>
