<svg width="48" height="48" viewBox="0 0 48 48" fill="none" xmlns="http://www.w3.org/2000/svg">
<g id="Layer_1" clip-path="url(#clip0_2943_677)">
<path id="Vector" d="M32.1232 28.5903C31.2488 28.5903 30.3743 28.3862 29.5629 27.983C27.7605 27.0842 26.5848 25.3498 26.4099 23.353C26.2398 21.3611 27.0998 19.4615 28.7127 18.2664L29.5338 17.6397L36.52 12.3976L37.8949 11.2559V22.8332C37.8949 24.8348 36.8698 26.6615 35.1548 27.7206C34.222 28.2988 33.1726 28.5903 32.1232 28.5903ZM36.9232 13.3206L36.8844 13.3498L29.2957 19.0389C27.95 20.0348 27.2309 21.6089 27.3767 23.2656C27.5176 24.9271 28.499 26.3652 29.9953 27.1133C31.4917 27.8615 33.2212 27.7741 34.6447 26.8947C36.0682 26.0154 36.9232 24.4947 36.9232 22.8332V13.3206Z" fill="#544E4E"/>
<path id="Vector_2" d="M24.2424 39.7994L11.9072 15.3767L12.772 14.9395L24.2424 37.6423L33.9639 18.2917L34.8287 18.7289L24.2424 39.7994Z" fill="#544E4E"/>
<path id="Vector_3" d="M24 48C10.766 48 0 37.234 0 24C0 10.766 10.766 0 24 0C37.234 0 48 10.766 48 24C48 37.234 37.234 48 24 48ZM24 0.97166C11.3004 0.97166 0.97166 11.3004 0.97166 24C0.97166 36.6996 11.3004 47.0283 24 47.0283C36.6996 47.0283 47.0283 36.6996 47.0283 24C47.0283 11.3004 36.6996 0.97166 24 0.97166Z" fill="#544E4E"/>
</g>
<defs>
<clipPath id="clip0_2943_677">
<rect width="48" height="48" fill="white"/>
</clipPath>
</defs>
</svg>
